<svg xmlns="http://www.w3.org/2000/svg" width="512" height="512" viewBox="0 0 512 512">
    <title>ionicons-v5_logos</title>
    <g transform="matrix(0.5,0,0,0.5,0,0)" >
        <path fill="white" d="M 611.3 329.3 C 662.8 329.5 704.5 371.2 704.7 422.7 V 609.3 C 704.5 660.8 662.8 702.5 611.3 702.7 H 424.7 C 373.2 702.5 331.5 660.8 331.3 609.3 V 422.7 C 331.5 371.2 373.2 329.5 424.7 329.3 H 611.3 m 0 -37.3 H 424.7 C 352.8 292 294 350.8 294 422.7 V 609.3 C 294 681.2 352.8 740 424.7 740 H 611.3 C 683.2 740 742 681.2 742 609.3 V 422.7 C 742 350.8 683.2 292 611.3 292 Z"/>
        <path fill="white" d="M 639.3 422.7 C 623.9 422.7 611.3 410.1 611.3 394.7 C 611.3 379.2 623.9 366.7 639.3 366.7 C 654.8 366.7 667.3 379.2 667.3 394.7 C 667.3 402.1 664.4 409.2 659.1 414.5 C 653.9 419.7 646.8 422.7 639.3 422.7 Z"/>
        <path fill="white" d="M 518 441.3 C 559.2 441.3 592.7 474.8 592.7 516 C 592.7 557.2 559.2 590.7 518 590.7 C 476.8 590.7 443.3 557.2 443.3 516 C 443.4 474.8 476.8 441.4 518 441.3 M 518 404 C 456.1 404 406 454.1 406 516 C 406 577.9 456.1 628 518 628 C 579.9 628 630 577.9 630 516 C 630 454.1 579.9 404 518 404 Z"/>
    </g>
    <circle
        r="200"
        fill="none"
        stroke="#ffffff"
        style="stroke-width: 20px"
        cx="256"
        cy="256"
        />
</svg>