<svg xmlns="http://www.w3.org/2000/svg" width="512" height="512" viewBox="0 0 512 512">
    <path
        fill="white"
        transform="matrix(0.5,0,0,0.5,0,0)"
        d="M 757.3 363.8 C 739.3 371.6 720.3 376.8 700.8 379.1 C 721.3 367.1 736.6 348 744 325.5 C 724.6 336.8 703.5 344.8 681.4 349 C 662.8 329.3 636.8 318.2 609.6 318.3 c -54.4 0 -98.5 43.4 -98.5 96.9 C 510.9 422.6 511.9 430.1 513.6 437.3 C 434.7 433.6 360.9 396.8 310.5 336 C 301.8 350.7 297.3 367.6 297.3 384.7 C 297.3 418.3 314.8 448 341.3 465.4 C 325.6 465 310.2 460.9 296.5 453.3 v 1.2 c 0 47 34 86.1 79 95 C 367.1 551.7 358.3 552.9 349.6 552.9 C 343.3 552.9 337.2 552.3 331.1 551.1 c 12.5 38.5 48.9 66.5 92 67.3 C 388.1 645.4 344.9 660 300.8 659.9 C 292.8 659.9 285 659.4 277.3 658.5 C 322.3 687.2 374.6 702.4 427.9 702.3 c 181.4 0 280.4 -147.7 280.4 -275.8 c 0 -4.2 -0.1 -8.4 -0.3 -12.5 C 727.4 400.3 744 383.3 757.3 363.8 Z"/>
    <circle
        r="200"
        fill="none"
        stroke="#ffffff"
        style="stroke-width:20px"
        cx="256"
        cy="256"
        />
</svg>